<svg width="305" height="51" viewBox="0 0 305 51" fill="none" xmlns="http://www.w3.org/2000/svg">
<path d="M217.658 16.215L213.517 41.1611H207.865L201.044 28.0546H200.898L198.705 41.1611H191.933L196.074 16.215H201.823L208.547 29.2727H208.742L210.886 16.215H217.658Z" fill="#FF5F3F"/>
<path d="M190.797 29.1265C190.342 31.8388 189.441 34.1125 188.093 35.9477C186.745 37.7829 185.108 39.1675 183.184 40.1013C181.259 41.0352 179.201 41.5021 177.008 41.5021C174.67 41.5021 172.639 40.9946 170.918 39.9795C169.196 38.9645 167.942 37.4784 167.154 35.5214C166.366 33.5644 166.208 31.1729 166.679 28.347C167.117 25.6347 168.011 23.3529 169.359 21.5014C170.707 19.6499 172.351 18.2491 174.292 17.299C176.233 16.3489 178.307 15.8739 180.516 15.8739C182.839 15.8739 184.857 16.3855 186.57 17.4087C188.292 18.4319 189.542 19.9301 190.322 21.9034C191.109 23.8766 191.268 26.2844 190.797 29.1265ZM183.976 28.347C184.203 26.9177 184.219 25.7159 184.024 24.7415C183.829 23.7589 183.419 23.0199 182.794 22.5246C182.169 22.0211 181.328 21.7694 180.273 21.7694C179.071 21.7694 178.007 22.0617 177.081 22.6464C176.156 23.2311 175.388 24.0715 174.779 25.1678C174.17 26.2641 173.744 27.5836 173.5 29.1265C173.24 30.572 173.216 31.7738 173.427 32.732C173.646 33.6902 174.077 34.4089 174.718 34.888C175.368 35.3671 176.212 35.6067 177.252 35.6067C178.437 35.6067 179.485 35.3224 180.394 34.754C181.312 34.1856 182.071 33.3613 182.672 32.2813C183.281 31.2013 183.716 29.8898 183.976 28.347Z" fill="#FF5F3F"/>
<path d="M144.79 21.6719L145.716 16.215H167.398L166.472 21.6719H158.969L155.753 41.1611H149.078L152.294 21.6719H144.79Z" fill="black"/>
<path d="M119.01 41.1611L123.151 16.215H133.919C135.77 16.215 137.334 16.552 138.609 17.226C139.884 17.9 140.801 18.8704 141.361 20.1372C141.922 21.404 142.056 22.9225 141.763 24.6927C141.471 26.4792 140.825 27.9856 139.827 29.2118C138.836 30.4299 137.573 31.3556 136.038 31.989C134.512 32.6143 132.798 32.9269 130.898 32.9269H124.467L125.344 27.6648H130.411C131.207 27.6648 131.905 27.5674 132.506 27.3725C133.107 27.1695 133.594 26.8528 133.968 26.4224C134.341 25.9839 134.585 25.4073 134.699 24.6927C134.812 23.9781 134.755 23.3975 134.528 22.9509C134.301 22.4962 133.923 22.1632 133.395 21.9521C132.867 21.7328 132.214 21.6232 131.434 21.6232H129.047L125.782 41.1611H119.01ZM135.527 29.7112L139.863 41.1611H132.506L128.316 29.7112H135.527Z" fill="black"/>
<path d="M117.874 29.1265C117.419 31.8388 116.518 34.1125 115.17 35.9477C113.822 37.7829 112.186 39.1675 110.261 40.1013C108.336 41.0352 106.278 41.5021 104.085 41.5021C101.747 41.5021 99.7166 40.9946 97.995 39.9795C96.2735 38.9645 95.0189 37.4784 94.2312 35.5214C93.4435 33.5644 93.2851 31.1729 93.7561 28.347C94.1946 25.6347 95.0879 23.3529 96.4359 21.5014C97.7839 19.6499 99.4283 18.2491 101.369 17.299C103.31 16.3489 105.385 15.8739 107.593 15.8739C109.916 15.8739 111.934 16.3855 113.647 17.4087C115.369 18.4319 116.619 19.9301 117.399 21.9034C118.187 23.8766 118.345 26.2844 117.874 29.1265ZM111.053 28.347C111.28 26.9177 111.296 25.7159 111.101 24.7415C110.907 23.7589 110.496 23.0199 109.871 22.5246C109.246 22.0211 108.405 21.7694 107.35 21.7694C106.148 21.7694 105.084 22.0617 104.158 22.6464C103.233 23.2311 102.465 24.0715 101.856 25.1678C101.247 26.2641 100.821 27.5836 100.577 29.1265C100.317 30.572 100.293 31.7738 100.504 32.732C100.723 33.6902 101.154 34.4089 101.795 34.888C102.445 35.3671 103.29 35.6067 104.329 35.6067C105.515 35.6067 106.562 35.3224 107.472 34.754C108.389 34.1856 109.148 33.3613 109.749 32.2813C110.358 31.2013 110.793 29.8898 111.053 28.347Z" fill="black"/>
<path d="M69.1998 41.1611L73.3412 16.215H84.109C85.9604 16.215 87.5196 16.5804 88.7864 17.3112C90.0532 18.0421 90.9626 19.0693 91.5148 20.393C92.067 21.7166 92.197 23.2635 91.9046 25.0338C91.6123 26.8365 90.9626 28.3916 89.9557 29.699C88.9569 30.9983 87.682 32.0012 86.131 32.7077C84.5881 33.406 82.8584 33.7552 80.942 33.7552H74.5106L75.3876 28.4931H80.4548C81.2668 28.4931 81.9814 28.3551 82.5986 28.079C83.2157 27.7948 83.7151 27.3969 84.0968 26.8853C84.4784 26.3656 84.7261 25.7484 84.8398 25.0338C84.9535 24.3192 84.9007 23.7102 84.6815 23.2067C84.4703 22.6951 84.1049 22.3053 83.5852 22.0373C83.0736 21.7613 82.4199 21.6232 81.6241 21.6232H79.2367L75.9722 41.1611H69.1998Z" fill="black"/>
<path d="M62.6283 24.0106C62.7014 23.2067 62.5065 22.5774 62.0436 22.1226C61.5808 21.6597 60.8012 21.4283 59.7049 21.4283C59.0066 21.4283 58.4219 21.5095 57.9509 21.6719C57.4881 21.8343 57.1267 22.0576 56.8668 22.3419C56.6151 22.6261 56.4568 22.955 56.3918 23.3285C56.3187 23.6208 56.3228 23.8888 56.404 24.1324C56.4933 24.3679 56.6598 24.5831 56.9034 24.778C57.1551 24.9729 57.484 25.1475 57.89 25.3018C58.3042 25.4561 58.7954 25.5941 59.3639 25.7159L61.3128 26.1544C62.6446 26.4468 63.7611 26.8325 64.6625 27.3116C65.572 27.7826 66.2866 28.3429 66.8063 28.9925C67.326 29.6422 67.6671 30.369 67.8295 31.1729C68 31.9768 68.0041 32.8538 67.8417 33.8039C67.5656 35.4442 66.9281 36.8328 65.9293 37.9697C64.9305 39.1066 63.6271 39.9714 62.0193 40.5642C60.4114 41.157 58.5518 41.4534 56.4405 41.4534C54.2805 41.4534 52.4452 41.1326 50.9348 40.4911C49.4325 39.8415 48.3444 38.8508 47.6704 37.519C47.0045 36.1792 46.8421 34.4698 47.1832 32.391H53.6146C53.5171 33.1543 53.5983 33.7958 53.8582 34.3155C54.1181 34.8352 54.5363 35.2291 55.1128 35.497C55.6894 35.765 56.408 35.899 57.2688 35.899C57.9996 35.899 58.6249 35.8097 59.1446 35.631C59.6643 35.4524 60.0744 35.2047 60.3749 34.888C60.6753 34.5713 60.8581 34.2099 60.923 33.8039C60.988 33.4304 60.923 33.0974 60.7281 32.8051C60.5332 32.5128 60.18 32.2488 59.6684 32.0133C59.1568 31.7779 58.4544 31.5627 57.5611 31.3678L55.1737 30.8318C53.0543 30.3446 51.4545 29.5407 50.3745 28.42C49.2945 27.2994 48.9128 25.7646 49.2295 23.8157C49.4894 22.2241 50.1431 20.8355 51.1906 19.6499C52.2463 18.4562 53.5862 17.5305 55.2103 16.8727C56.8425 16.2068 58.6493 15.8739 60.6307 15.8739C62.6446 15.8739 64.3296 16.2109 65.6857 16.8849C67.0499 17.5589 68.0284 18.5049 68.6212 19.723C69.2221 20.9411 69.3846 22.3703 69.1085 24.0106H62.6283Z" fill="black"/>
<path d="M12.5263 34.0637L14.3158 51L3.57895 43.8689V38.5206L0 35.8464L2.23684 16.6816L17 11.3333V35.8464L16.1053 35.4007L15.6579 29.6067L6.26316 24.2584L5.81579 30.0524L12.5263 34.0637Z" fill="#0C0707"/>
<path d="M21.4736 34.0637L19.6841 51L30.421 43.8689V38.5206L33.9999 35.8464L31.7631 16.6816L16.9999 11.3333V35.8464L17.8947 35.4007L18.342 29.6067L27.7368 24.2584L28.1841 30.0524L21.4736 34.0637Z" fill="#0C0707"/>
<path d="M17.7083 9.91666L5.66663 14.1667L8.78854 9.91666L17.7083 5.66666V9.91666Z" fill="#FF5F3F"/>
<path d="M17.7083 9.91666L29.75 14.1667L26.6281 9.91666L17.7083 5.66666V9.91666Z" fill="#FF5F3F"/>
<path d="M16.9998 4.35898L14.1665 5.66667L14.6679 3.48718L16.9998 0V4.35898Z" fill="black"/>
<path d="M16.9998 4.35898L19.8332 5.66667L19.3318 3.48718L16.9998 0V4.35898Z" fill="black"/>
<path d="M300.13 27.6671C301.506 27.6671 302.587 28.0433 303.371 28.7956C304.171 29.5319 304.572 30.5884 304.572 31.965C304.572 32.4772 304.531 32.9414 304.451 33.3576L303.059 41.1611H299.721L301.018 33.8138C301.066 33.5257 301.09 33.2456 301.09 32.9734C301.09 32.1731 300.874 31.5648 300.442 31.1486C300.025 30.7324 299.425 30.5243 298.641 30.5243C297.744 30.5243 296.976 30.7965 296.336 31.3407C295.712 31.8689 295.295 32.6373 295.087 33.6457L293.767 41.1611H290.381L292.734 27.8592H296.12L295.832 29.4919C296.376 28.9316 297.024 28.4914 297.776 28.1713C298.529 27.8352 299.313 27.6671 300.13 27.6671Z" fill="black"/>
<path d="M288.045 26.2745C287.516 26.2745 287.092 26.1224 286.772 25.8183C286.452 25.5141 286.292 25.13 286.292 24.6658C286.292 24.0255 286.532 23.4812 287.012 23.033C287.508 22.5688 288.085 22.3367 288.741 22.3367C289.253 22.3367 289.669 22.4888 289.989 22.7929C290.31 23.0971 290.47 23.4812 290.47 23.9454C290.47 24.5857 290.23 25.138 289.749 25.6022C289.269 26.0504 288.701 26.2745 288.045 26.2745ZM289.437 27.8592L287.084 41.1611H283.699L286.052 27.8592H289.437Z" fill="black"/>
<path d="M277.459 27.6671C278.868 27.6671 279.981 28.0433 280.797 28.7956C281.613 29.5479 282.021 30.6124 282.021 31.989C282.021 32.5012 281.981 32.9574 281.901 33.3576L280.509 41.1611H277.171L278.468 33.8138C278.516 33.5257 278.54 33.2456 278.54 32.9734C278.54 32.2051 278.324 31.6208 277.892 31.2207C277.475 30.8045 276.875 30.5964 276.091 30.5964C275.162 30.5964 274.378 30.8765 273.738 31.4368C273.098 31.981 272.697 32.7733 272.537 33.8138V33.7898L271.217 41.1611H267.879L269.176 33.8138C269.224 33.5257 269.248 33.2536 269.248 32.9974C269.248 32.2131 269.032 31.6208 268.6 31.2207C268.167 30.8045 267.559 30.5964 266.775 30.5964C265.894 30.5964 265.134 30.8605 264.494 31.3887C263.869 31.901 263.461 32.6373 263.269 33.5977L261.925 41.1611H258.539L260.892 27.8592H264.278L263.989 29.4439C264.518 28.8996 265.15 28.4674 265.886 28.1473C266.623 27.8272 267.399 27.6671 268.215 27.6671C269.256 27.6671 270.144 27.8912 270.881 28.3394C271.617 28.7716 272.137 29.3958 272.441 30.2122C273.001 29.4439 273.73 28.8276 274.626 28.3634C275.539 27.8992 276.483 27.6671 277.459 27.6671Z" fill="black"/>
<path d="M242.602 34.4621C242.842 33.1175 243.315 31.9249 244.019 30.8845C244.739 29.844 245.612 29.0437 246.636 28.4834C247.677 27.9232 248.765 27.643 249.902 27.643C250.766 27.643 251.558 27.8351 252.279 28.2193C252.999 28.5875 253.535 29.0837 253.887 29.708L255.016 23.3932H258.401L255.256 41.161H251.87L252.231 39.1921C251.702 39.8484 251.022 40.3767 250.19 40.7768C249.373 41.177 248.469 41.3771 247.477 41.3771C246.5 41.3771 245.628 41.161 244.859 40.7288C244.107 40.2806 243.515 39.6564 243.083 38.856C242.666 38.0396 242.458 37.0952 242.458 36.0227C242.458 35.5265 242.506 35.0063 242.602 34.4621ZM253.047 34.5101C253.111 34.0939 253.143 33.7898 253.143 33.5977C253.143 32.6533 252.863 31.9169 252.303 31.3887C251.758 30.8605 251.07 30.5963 250.238 30.5963C249.613 30.5963 249.005 30.7484 248.413 31.0525C247.837 31.3567 247.332 31.8049 246.9 32.3971C246.468 32.9734 246.18 33.6617 246.036 34.4621C245.988 34.7662 245.964 35.0543 245.964 35.3264C245.964 36.2869 246.236 37.0472 246.78 37.6074C247.324 38.1517 248.013 38.4238 248.845 38.4238C249.469 38.4238 250.078 38.2717 250.67 37.9676C251.262 37.6475 251.766 37.1913 252.183 36.599C252.615 36.0067 252.903 35.3104 253.047 34.5101Z" fill="black"/>
<path d="M235.932 37.9676H229.233L227.576 41.1611H224.047L233.05 24.3776H236.964L240.014 41.1611H236.46L235.932 37.9676ZM235.5 35.3505L234.299 28.2433L230.601 35.3505H235.5Z" fill="black"/>
</svg>
